<?xml version="1.0" encoding="UTF-8"?>
<svg width="183px" height="94px" viewBox="0 0 183 94" version="1.1" xmlns="http://www.w3.org/2000/svg" xmlns:xlink="http://www.w3.org/1999/xlink">
    <!-- Generator: Sketch 47.1 (45422) - http://www.bohemiancoding.com/sketch -->
    <title>Page 1</title>
    <desc>Created with Sketch.</desc>
    <defs></defs>
    <g id="Page-1" stroke="none" stroke-width="1" fill="none" fill-rule="evenodd">
        <g id="white" transform="translate(-629.000000, -87.000000)" fill="#231F20">
            <g id="Page-1" transform="translate(629.000000, 87.000000)">
                <path d="M48.401975,10.6811025 C48.3069558,10.2440025 48.1333404,9.9056025 47.8811288,9.6670775 C47.6289173,9.4309025 47.3227442,9.2675775 46.9602635,9.1829775 C46.6001288,9.0995525 46.2083212,9.0784025 45.7848404,9.1207025 C45.3601865,9.1618275 44.9273212,9.2370275 44.4874173,9.3404275 C43.6263788,9.5437025 43.1970327,9.6482775 42.3371673,9.8621275 C42.7688596,11.6046525 42.9847058,12.4765025 43.4163981,14.2202025 C44.2223019,14.0204525 44.6270135,13.9217525 45.4364365,13.7302275 C45.8845519,13.6233025 46.3092058,13.4881775 46.7045327,13.3236775 C47.0998596,13.1580025 47.4447442,12.9523775 47.7356673,12.7032775 C48.0242442,12.4541775 48.2318788,12.1639525 48.3573981,11.8337775 C48.4829173,11.5036025 48.4981673,11.1193775 48.401975,10.6811025 M53.2784558,9.6471025 C53.4884365,10.7375025 53.4473788,11.6998275 53.1623212,12.5317275 C52.8772635,13.3636275 52.4197635,14.0839025 51.787475,14.6890275 C51.1551865,15.2953275 50.3926865,15.8052775 49.4976288,16.2212275 C48.600225,16.6395275 47.6488596,16.9650025 46.6376673,17.2035275 C45.6980327,17.4244275 45.229975,17.5372275 44.2938596,17.7698775 C44.9824558,20.5569775 45.3273404,21.9517025 46.0171096,24.7388025 C44.2011865,25.1900025 43.2943981,25.4261775 41.4866865,25.9220275 C39.4818981,18.5771025 38.4777442,14.9040525 36.4717827,7.5591275 C39.4901096,6.7319275 41.0045519,6.3477025 44.0439942,5.6321275 C45.1736673,5.3677525 46.2564173,5.2279275 47.2852058,5.2150025 C48.3139942,5.1997275 49.240725,5.3442525 50.0630519,5.6427025 C50.8842058,5.9399775 51.5751481,6.4158525 52.1335327,7.0632775 C52.6907442,7.7095275 53.0708212,8.5731525 53.2784558,9.6471025" id="Fill-1"></path>
                <path d="M73.2662788,10.3654975 C73.1876827,9.5453475 72.9730096,8.7909975 72.6163942,8.1047975 C72.2586058,7.4197725 71.7987596,6.8487225 71.2345096,6.3939975 C70.6702596,5.9380975 70.0062981,5.6032225 69.2449712,5.3917225 C68.4859904,5.1813975 67.6648365,5.1285225 66.7908942,5.2377975 C65.9157788,5.3470725 65.1380288,5.5973475 64.4623365,5.9874475 C63.7854712,6.3787225 63.2235673,6.8663475 62.7777981,7.4491475 C62.3320288,8.0295975 62.0246827,8.6958225 61.8557596,9.4478225 C61.6868365,10.1974725 61.6668942,10.9811975 61.7924135,11.7954725 C61.922625,12.6461725 62.1830481,13.4087475 62.5701635,14.0843725 C62.959625,14.7599975 63.4358942,15.3181225 63.9989712,15.7622725 C64.5620481,16.2052475 65.2037212,16.5248475 65.9228173,16.7257725 C66.6407404,16.9266975 67.4114519,16.9736975 68.236125,16.8714725 C69.0619712,16.7680725 69.7974904,16.5330725 70.4450288,16.1617725 C71.0925673,15.7904725 71.6392212,15.3228225 72.0861635,14.7529475 C72.5331058,14.1842475 72.8615673,13.5250725 73.0715481,12.7754225 C73.2815288,12.0245975 73.3483942,11.2220725 73.2662788,10.3654975 M78.468875,9.9342725 C78.5732788,11.4370975 78.3949712,12.8282975 77.9480288,14.1102225 C77.5010865,15.3921475 76.8418173,16.5119225 75.9772596,17.4777725 C75.1115288,18.4412725 74.0639712,19.2261725 72.8310673,19.8395225 C71.5993365,20.4516975 70.2444327,20.8476725 68.754625,21.0333225 C67.2636442,21.2189725 65.857125,21.1684475 64.5198173,20.8758725 C63.1836827,20.5832975 61.9777596,20.0792225 60.8997019,19.3565975 C59.8239904,18.6351475 58.9089904,17.7104225 58.1593942,16.5765475 C57.4109712,15.4438475 56.8959904,14.1407725 56.6297019,12.6567475 C56.3598942,11.1586225 56.3903942,9.7533225 56.7341058,8.4467225 C57.0778173,7.1401225 57.6796058,5.9756975 58.5429904,4.9604975 C59.4087212,3.9476475 60.5032019,3.1028225 61.8240865,2.4377725 C63.1461442,1.7727225 64.6347788,1.3332725 66.2794327,1.1288225 C67.9240865,0.9231975 69.4795865,0.9831225 70.9318558,1.3015475 C72.384125,1.6223225 73.6557404,2.1710475 74.7396635,2.9430225 C75.8224135,3.7138225 76.6881442,4.6949475 77.340375,5.8769975 C77.9914327,7.0602225 78.3632981,8.4149975 78.468875,9.9342725" id="Fill-3"></path>
                <path d="M103.242265,19.3272225 C101.408746,19.2273475 100.490227,19.1873975 98.6543615,19.1309975 C97.2935923,13.9339725 96.5627654,11.3407475 95.0002269,6.1707475 C94.9650346,6.1707475 94.9486115,6.1707475 94.9134192,6.1695725 C93.2359192,11.3043225 92.4464385,13.8799225 90.9707077,19.0452225 C89.1231115,19.0604975 88.1999,19.0804725 86.3534769,19.1403975 C83.9240346,11.6004225 82.60315,7.8474725 79.7478808,0.3920975 C81.9391885,0.2581475 83.0360154,0.2076225 85.2308423,0.1300725 C86.7417654,5.1461475 87.4573423,7.6606475 88.8110731,12.7013975 C88.8450923,12.7002225 88.8615154,12.7002225 88.8955346,12.6990475 C90.2140731,7.6077725 90.9179192,5.0674225 92.4147654,0.0008225 C94.5380346,-0.0015275 95.5996692,0.0102225 97.7229385,0.0607475 C99.1165538,5.1602475 99.7687846,7.7170475 100.981746,12.8388725 C101.016938,12.8400475 101.033362,12.8400475 101.067381,12.8412225 C102.557188,7.8345475 103.34315,5.3376725 104.993669,0.3580225 C107.114592,0.4825725 108.173881,0.5565975 110.292458,0.7328475 C107.260054,8.1224225 105.848842,11.8436475 103.242265,19.3272225" id="Fill-5"></path>
                <path d="M111.371337,19.9445675 C112.10451,12.3658175 112.471683,8.5752675 113.206029,0.9965175 C118.864952,1.5452425 121.687375,1.9141925 127.307587,2.8436175 C127.056548,4.3722925 126.931029,5.1360425 126.678817,6.6647175 C123.073952,6.0689925 121.265067,5.8116675 117.642606,5.3745675 C117.470163,6.8045425 117.384529,7.5201175 117.212087,8.9512675 C120.578817,9.3566425 122.25749,9.5939925 125.608971,10.1403675 C125.373183,11.5950175 125.254702,12.3223425 125.018913,13.7758175 C121.728433,13.2400175 120.077913,13.0073675 116.772183,12.6078675 C116.583317,14.1776675 116.489471,14.9637425 116.300606,16.5335425 C119.92776,16.9706425 121.737817,17.2303175 125.345029,17.8366175 C125.085779,19.3840925 124.95674,20.1595925 124.69749,21.7082425 C119.388144,20.8164175 116.719394,20.4639175 111.371337,19.9445675" id="Fill-7"></path>
                <path d="M141.43941,11.67245 C141.543813,11.2377 141.528563,10.8617 141.392487,10.540925 C141.258756,10.223675 141.048775,9.95225 140.76841,9.729 C140.486871,9.504575 140.152544,9.321275 139.770121,9.17675 C139.387698,9.0334 139.013487,8.9206 138.647487,8.83835 C137.59641,8.601 137.069698,8.484675 136.016275,8.261425 C135.649102,9.9969 135.464929,10.865225 135.098929,12.6007 C136.016275,12.79575 136.476121,12.8968 137.392294,13.102425 C137.787621,13.19055 138.199371,13.252825 138.628717,13.2869 C139.058063,13.32215 139.460429,13.301 139.835813,13.224625 C140.212371,13.14825 140.544352,12.987275 140.834102,12.742875 C141.121506,12.49965 141.324448,12.14245 141.43941,11.67245 M138.519621,24.549275 C137.599929,21.21345 137.106063,19.5473 136.051467,16.2197 C135.405102,16.07635 135.082506,16.00585 134.434967,15.868375 C133.808544,18.82585 133.496506,20.304 132.870083,23.2603 C131.087006,22.88195 130.193121,22.70335 128.403006,22.3673 C129.80366,14.881375 130.506333,11.140175 131.906987,3.655425 C135.084852,4.2535 136.670852,4.5825 139.831121,5.300425 C140.824717,5.528375 141.772563,5.8468 142.67114,6.259225 C143.569717,6.670475 144.33691,7.191 144.969198,7.814925 C145.601487,8.437675 146.043737,9.166175 146.295948,9.993375 C146.546987,10.8194 146.528217,11.76175 146.246679,12.818075 C145.912352,14.06475 145.265987,15.012975 144.319313,15.67215 C143.373813,16.331325 142.220679,16.68265 140.858737,16.735525 C142.130352,20.403875 142.722756,22.241575 143.820756,25.921675 C141.706871,25.3424 140.645237,25.06745 138.519621,24.549275" id="Fill-9"></path>
                <path d="M76.6509577,29.7083475 C76.4902462,30.0996225 76.2626692,30.4344975 75.9647077,30.7129725 C75.6679192,30.9926225 75.3089577,31.2099975 74.8889962,31.3674475 C74.4690346,31.5237225 74.00215,31.6012725 73.4895154,31.6012725 C72.9686692,31.6012725 72.5006115,31.5237225 72.0841692,31.3674475 C71.6677269,31.2099975 71.3146308,30.9926225 71.0248808,30.7129725 C70.7351308,30.4344975 70.5122462,30.0996225 70.3562269,29.7083475 C70.2002077,29.3170725 70.1216115,28.8834975 70.1216115,28.4076225 L70.1216115,23.4808475 L72.0173038,23.4808475 L72.0173038,28.2513475 C72.0173038,28.4663725 72.0454577,28.6708225 72.1005923,28.8646975 C72.1569,29.0585725 72.2425346,29.2324725 72.3574962,29.3852225 C72.4724577,29.5367975 72.6249577,29.6578225 72.8138231,29.7471225 C73.0050346,29.8364225 73.2326115,29.8810725 73.5000731,29.8810725 C73.7687077,29.8810725 73.9962846,29.8364225 74.1863231,29.7471225 C74.3763615,29.6578225 74.5300346,29.5367975 74.6496885,29.3852225 C74.7681692,29.2324725 74.8538038,29.0585725 74.9065923,28.8646975 C74.9582077,28.6708225 74.9840154,28.4663725 74.9840154,28.2513475 L74.9840154,23.4808475 L76.8902654,23.4808475 L76.8902654,28.4076225 C76.8902654,28.8834975 76.8116692,29.3170725 76.6509577,29.7083475" id="Fill-11"></path>
                <polygon id="Fill-13" points="84.5623058 31.3893025 81.3844404 26.2181275 81.3515942 26.2181275 81.3961712 31.3893025 79.5450558 31.3893025 79.5450558 23.4815525 81.7187673 23.4815525 84.8849019 28.6409775 84.9200942 28.6409775 84.8755173 23.4815525 86.7266327 23.4815525 86.7266327 31.3893025"></polygon>
                <path d="M94.8554692,27.4121625 C94.8554692,26.9656625 94.7827385,26.5955375 94.63845,26.3017875 C94.4929885,26.0080375 94.2994308,25.7718625 94.0577769,25.5979625 C93.8161231,25.4228875 93.5416231,25.2971625 93.2331038,25.2243125 C92.9245846,25.1491125 92.6066808,25.1115125 92.2805654,25.1115125 L91.3315462,25.1115125 L91.3315462,29.7363125 L92.2359885,29.7363125 C92.5773538,29.7363125 92.9058154,29.6963625 93.2213731,29.6188125 C93.5381038,29.5412625 93.8161231,29.4120125 94.0577769,29.2334125 C94.2994308,29.0536375 94.4929885,28.8162875 94.63845,28.5178375 C94.7827385,28.2205625 94.8554692,27.8516125 94.8554692,27.4121625 M96.8403154,27.4121625 C96.8403154,28.1054125 96.71245,28.7034875 96.4555462,29.2052125 C96.1998154,29.7081125 95.8607962,30.1217125 95.4408346,30.4448375 C95.0220462,30.7691375 94.54695,31.0088375 94.0190654,31.1592375 C93.4911808,31.3131625 92.9562577,31.3895375 92.4142962,31.3895375 L89.4698731,31.3895375 L89.4698731,23.4806125 L92.3251423,23.4806125 C92.8811808,23.4806125 93.4325269,23.5464125 93.9744885,23.6756625 C94.5176231,23.8072625 95.0009308,24.0222875 95.4244115,24.3242625 C95.8490654,24.6262375 96.1904308,25.0304375 96.4496808,25.5356875 C96.7112769,26.0421125 96.8403154,26.6683875 96.8403154,27.4121625" id="Fill-15"></path>
                <polygon id="Fill-17" points="99.2166173 31.3893025 99.2166173 23.4815525 104.523617 23.4815525 104.523617 25.0901275 101.056002 25.0901275 101.056002 26.5859025 104.334752 26.5859025 104.334752 28.1169275 101.056002 28.1169275 101.056002 29.7584025 104.725387 29.7584025 104.725387 31.3893025"></polygon>
                <path d="M111.24875,25.9044025 C111.24875,25.7187525 111.210038,25.5683525 111.130269,25.4520275 C111.052846,25.3380525 110.951962,25.2475775 110.828788,25.1841275 C110.704442,25.1206775 110.567192,25.0783775 110.413519,25.0548775 C110.259846,25.0337275 110.112038,25.0219775 109.971269,25.0219775 L108.951865,25.0219775 L108.951865,26.8643775 L109.858654,26.8643775 C110.015846,26.8643775 110.176558,26.8526275 110.341962,26.8256025 C110.505019,26.8009275 110.654,26.7539275 110.788904,26.6869525 C110.923808,26.6188025 111.032904,26.5224525 111.119712,26.3967275 C111.205346,26.2698275 111.24875,26.1065025 111.24875,25.9044025 L111.24875,25.9044025 Z M111.326173,31.3893025 L109.612308,28.2508775 L108.962423,28.2508775 L108.962423,31.3893025 L107.10075,31.3893025 L107.10075,23.4803775 L110.110865,23.4803775 C110.490942,23.4803775 110.860462,23.5203275 111.221769,23.5978775 C111.580731,23.6766025 111.905673,23.8093775 112.190731,23.9950275 C112.476962,24.1806775 112.705712,24.4262525 112.876981,24.7317525 C113.047077,25.0372525 113.132712,25.4167775 113.132712,25.8715025 C113.132712,26.4073025 112.98725,26.8585025 112.6975,27.2227525 C112.40775,27.5881775 112.006558,27.8478525 111.493923,28.0041275 L113.557365,31.3893025 L111.326173,31.3893025 Z" id="Fill-19"></path>
                <path d="M84.4408923,93.102065 C79.2242192,93.102065 76.2539885,90.79319 74.6820654,88.85679 C69.8642385,82.92069 71.7059692,73.228115 71.9312,72.142415 L77.6734115,73.340915 C77.2252962,75.538165 76.6305462,81.95719 79.2394692,85.15789 C80.3738346,86.550265 82.0747962,87.227065 84.4408923,87.227065 C90.8212577,87.227065 91.5098538,80.59889 91.5098538,77.75069 C91.5098538,71.228265 87.2292962,66.380215 83.0906808,61.691965 C79.0236231,57.08714 74.8193154,52.324865 74.9858923,46.08679 C75.1806231,38.795915 79.2617577,34.61409 86.1805654,34.61409 C94.3862385,34.61409 96.8051231,42.10589 96.9388538,46.06799 L91.0769885,46.26539 L94.0073346,46.16669 L91.0769885,46.28184 C91.0335846,45.314815 90.5889885,40.48909 86.1805654,40.48909 C83.0730846,40.48909 80.9767962,41.467865 80.8489308,46.245415 C80.7445269,50.16639 83.8684308,53.704315 87.4838538,57.79919 C92.1198538,63.05144 97.3752385,69.002815 97.3752385,77.75069 C97.3752385,87.07549 92.2981615,93.102065 84.4408923,93.102065" id="Fill-21"></path>
                <path d="M108.981544,73.2865125 C106.575563,73.2865125 104.446429,72.4005625 102.824063,70.7250125 C101.188794,69.0365375 100.290217,66.7241375 100.290217,64.2143375 L100.290217,43.0314375 C100.290217,40.0034625 101.86566,37.2586625 104.399506,35.8674625 C105.84239,35.0755125 107.518717,34.6760125 109.38391,34.6760125 C112.15589,34.6760125 115.029929,36.0178625 116.374275,37.9413375 C117.224756,39.1586375 117.674044,40.6520625 117.674044,42.2594625 L117.674044,47.7196875 L111.80866,47.7196875 L111.80866,42.2594625 C111.80866,41.8752375 111.721852,41.5286125 111.568179,41.3100625 C111.39691,41.1150125 110.45141,40.5510125 109.38391,40.5510125 C108.51466,40.5510125 107.785006,40.7084625 107.216063,41.0210125 C106.572044,41.3746875 106.155602,42.1642875 106.155602,43.0314375 L106.155602,64.2143375 C106.155602,65.1754875 106.475852,66.0590875 107.03541,66.6371875 C107.546871,67.1647625 108.166256,67.4115125 108.981544,67.4115125 C109.747563,67.4115125 110.35639,67.2211625 110.843217,66.8275375 C111.448525,66.3387375 111.80866,65.4927375 111.80866,64.5633125 L111.80866,59.7046875 L117.674044,59.7046875 L117.674044,64.5633125 C117.674044,67.2904875 116.526775,69.7826625 114.526679,71.4006375 C112.99816,72.6343875 111.081352,73.2865125 108.981544,73.2865125" id="Fill-23"></path>
                <path d="M130.003083,39.6074875 C129.133833,39.6074875 128.405352,39.7661125 127.835237,40.0774875 C127.19239,40.4311625 126.774775,41.2207625 126.774775,42.0879125 L126.774775,64.4481625 C126.774775,65.4081375 127.095025,66.2905625 127.654583,66.8686625 C128.167217,67.3962375 128.785429,67.6429875 129.60189,67.6429875 C130.36791,67.6429875 130.976737,67.4514625 131.464737,67.0578375 C132.067698,66.5713875 132.427833,65.7253875 132.427833,64.7959625 L132.427833,41.3159375 C132.427833,40.9305375 132.341025,40.5850875 132.188525,40.3665375 C132.016083,40.1714875 131.070583,39.6074875 130.003083,39.6074875 M129.60189,73.5179875 C127.194737,73.5179875 125.065602,72.6320375 123.443237,70.9576625 C121.80914,69.2680125 120.90939,66.9556125 120.90939,64.4481625 L120.90939,42.0879125 C120.90939,39.0599375 122.484833,36.3151375 125.018679,34.9251125 C126.461563,34.1331625 128.13789,33.7324875 130.003083,33.7324875 C132.775063,33.7324875 135.649102,35.0755125 136.993448,36.9978125 C137.845102,38.2139375 138.293217,39.7073625 138.293217,41.3159375 L138.293217,64.7959625 C138.293217,67.5231375 137.147121,70.0153125 135.147025,71.6321125 C133.61616,72.8670375 131.699352,73.5179875 129.60189,73.5179875" id="Fill-25"></path>
                <path d="M148.139908,53.8703425 L153.077388,53.8703425 C153.757773,53.6506175 156.351446,52.4638675 156.351446,47.2116175 C156.351446,41.8747675 153.425792,40.7467675 152.724292,40.5540675 L148.139908,40.5540675 L148.139908,53.8703425 Z M148.139908,73.2742925 L142.274523,73.2742925 L142.274523,34.6790675 L153.480927,34.7143175 C156.502773,35.1878425 162.216831,38.4073425 162.216831,47.2116175 C162.216831,55.9970925 156.777273,59.2259925 153.900888,59.7053925 L153.418754,59.7453425 L148.139908,59.7453425 L148.139908,73.2742925 Z" id="Fill-27"></path>
                <polygon id="Fill-29" points="182.41921 40.8959925 182.41921 35.0209925 165.409594 35.0209925 165.409594 73.4047175 182.41921 73.4047175 182.41921 67.5297175 171.274979 67.5297175 171.274979 57.2073425 177.530998 57.2073425 177.530998 51.3323425 171.274979 51.3323425 171.274979 40.8959925"></polygon>
                <polygon id="Fill-31" points="66.9547731 40.8959925 66.9547731 35.0209925 49.9451577 35.0209925 49.9451577 73.4047175 66.9547731 73.4047175 66.9547731 67.5297175 55.8105423 67.5297175 55.8105423 57.2073425 62.0665615 57.2073425 62.0665615 51.3323425 55.8105423 51.3323425 55.8105423 40.8959925"></polygon>
                <path d="M45.1662769,35.4754825 L44.3897,29.6533575 C37.6843923,30.5498825 33.3956231,31.6802325 29.61245,32.6778075 C24.6937385,33.9750075 20.8096808,34.9984325 13.2773538,34.9984325 C9.50591154,34.9984325 5.39193077,34.5977575 1.0492,33.8058075 L0.000469230769,39.5868075 C4.18718077,40.3493825 8.18502692,40.7559325 11.9318346,40.8381825 L11.9318346,72.8169825 L17.7972192,72.8169825 L17.7972192,40.7406575 C23.3493923,40.3999075 27.0058731,39.4399325 31.1046038,38.3589325 C34.7223731,37.4060075 38.8222769,36.3250075 45.1662769,35.4754825" id="Fill-33"></path>
                <path d="M38.4377423,38.7915675 L38.4377423,50.3676675 C36.6053962,49.8882675 34.6803769,49.9000175 32.85155,50.3758925 L32.85155,35.3805425 L26.9861654,35.3805425 L26.9861654,72.8172175 L32.85155,72.8172175 L32.85155,56.7032675 C34.5478192,55.6199175 36.7297423,55.6199175 38.4377423,56.7185425 L38.4377423,72.8172175 L44.3031269,72.8172175 L44.3031269,38.7915675 L38.4377423,38.7915675 Z" id="Fill-35"></path>
            </g>
        </g>
    </g>
</svg>